<?xml version="1.0" encoding="UTF-8" standalone="no"?>
<!-- Created with Inkscape (http://www.inkscape.org/) -->

<svg
   xmlns:dc="http://purl.org/dc/elements/1.1/"
   xmlns:cc="http://creativecommons.org/ns#"
   xmlns:rdf="http://www.w3.org/1999/02/22-rdf-syntax-ns#"
   xmlns:svg="http://www.w3.org/2000/svg"
   xmlns="http://www.w3.org/2000/svg"
   xmlns:sodipodi="http://sodipodi.sourceforge.net/DTD/sodipodi-0.dtd"
   xmlns:inkscape="http://www.inkscape.org/namespaces/inkscape"
   width="1113mm"
   height="1894mm"
   viewBox="0 0 1113.0001 1894"
   version="1.1"
   id="svg823"
   inkscape:version="0.92.2 (5c3e80d, 2017-08-06)"
   sodipodi:docname="Singapore_road_sign_-_Informatory_-_Speed_camera_ahead.svg">
  <defs
     id="defs817" />
  <sodipodi:namedview
     id="base"
     pagecolor="#ffffff"
     bordercolor="#666666"
     borderopacity="1.0"
     inkscape:pageopacity="0.0"
     inkscape:pageshadow="2"
     inkscape:zoom="0.0703125"
     inkscape:cx="854.84129"
     inkscape:cy="4619.2476"
     inkscape:document-units="mm"
     inkscape:current-layer="layer1"
     showgrid="false"
     inkscape:window-width="1920"
     inkscape:window-height="1057"
     inkscape:window-x="-8"
     inkscape:window-y="-8"
     inkscape:window-maximized="1"
     inkscape:snap-global="false"
     inkscape:measure-start="-680,810"
     inkscape:measure-end="0,0"
     fit-margin-top="0"
     fit-margin-left="0"
     fit-margin-right="0"
     fit-margin-bottom="0" />
  <metadata
     id="metadata820">
    <rdf:RDF>
      <cc:Work
         rdf:about="">
        <dc:format>image/svg+xml</dc:format>
        <dc:type
           rdf:resource="http://purl.org/dc/dcmitype/StillImage" />
        <dc:title></dc:title>
      </cc:Work>
    </rdf:RDF>
  </metadata>
  <g
     inkscape:label="Layer 1"
     inkscape:groupmode="layer"
     id="layer1"
     transform="translate(-1235,3005.0005)">
    <rect
       style="opacity:1;fill:#000000;fill-opacity:1;fill-rule:nonzero;stroke:none;stroke-width:0.15945412;stroke-linecap:square;stroke-linejoin:round;stroke-miterlimit:10;stroke-dasharray:none;stroke-opacity:1;paint-order:stroke fill markers"
       id="rect1368"
       width="1111"
       height="1892"
       x="1236"
       y="-3004.0005"
       rx="52"
       ry="52" />
    <rect
       ry="50"
       rx="50"
       y="-3002.0005"
       x="1238"
       height="1888"
       width="1107"
       id="rect1370"
       style="opacity:1;fill:#ffffff;fill-opacity:1;fill-rule:nonzero;stroke:none;stroke-width:0.15899846;stroke-linecap:square;stroke-linejoin:round;stroke-miterlimit:10;stroke-dasharray:none;stroke-opacity:1;paint-order:stroke fill markers" />
    <rect
       style="opacity:1;fill:#0046aa;fill-opacity:1;fill-rule:nonzero;stroke:none;stroke-width:0;stroke-linecap:square;stroke-linejoin:miter;stroke-miterlimit:10;stroke-dasharray:none;stroke-opacity:1;paint-order:fill markers stroke"
       id="rect826"
       width="1059"
       height="1840"
       x="1262"
       y="-2978.0005"
       rx="26"
       ry="26" />
    <path
       style="opacity:1;fill:#ffffff;fill-opacity:1;fill-rule:nonzero;stroke:none;stroke-width:1.85788083;stroke-linecap:square;stroke-linejoin:miter;stroke-miterlimit:1.41400003;stroke-dasharray:none;stroke-opacity:1;paint-order:markers stroke fill"
       d="m 1441.5,-2628.0005 h 30 v -29.9999 h 29.9999 v -30.0001 h 30 v 30.0001 h 30.0002 v 29.9999 H 1728.5 v -30 h -87 v -200 h 250 v 200 h -84 v 30 h 209.0001 v -50 h 50 v 50 h 75 v 350 H 1441.5 Z"
       id="rect6493"
       inkscape:connector-curvature="0"
       sodipodi:nodetypes="ccccccccccccccccccccccccc" />
    <circle
       style="opacity:1;fill:#0046aa;fill-opacity:1;fill-rule:nonzero;stroke:none;stroke-width:0.87626976;stroke-linecap:square;stroke-linejoin:miter;stroke-miterlimit:1.41400003;stroke-dasharray:none;stroke-opacity:1;paint-order:markers stroke fill"
       id="path6545"
       cx="1779"
       cy="-2453.0005"
       r="112.5" />
    <rect
       style="opacity:1;fill:#0046aa;fill-opacity:1;fill-rule:nonzero;stroke:none;stroke-width:0.76111341;stroke-linecap:square;stroke-linejoin:miter;stroke-miterlimit:1.41400003;stroke-dasharray:none;stroke-opacity:1;paint-order:markers stroke fill"
       id="rect6547"
       width="52"
       height="28"
       x="1591.5"
       y="-2581.0005" />
    <circle
       cy="-2453.0005"
       cx="1779"
       id="circle6558"
       style="opacity:1;fill:#ffffff;fill-opacity:1;fill-rule:nonzero;stroke:none;stroke-width:0.58417988;stroke-linecap:square;stroke-linejoin:miter;stroke-miterlimit:1.41400003;stroke-dasharray:none;stroke-opacity:1;paint-order:markers stroke fill"
       r="75" />
    <rect
       style="opacity:1;fill:#0046aa;fill-opacity:1;fill-rule:nonzero;stroke:none;stroke-width:1.46101105;stroke-linecap:square;stroke-linejoin:miter;stroke-miterlimit:1.41400003;stroke-dasharray:none;stroke-opacity:1;paint-order:markers stroke fill"
       id="rect6615"
       width="145"
       height="148"
       x="1679.5"
       y="-2828.0005" />
    <path
       style="opacity:1;fill:#ffffff;fill-opacity:1;fill-rule:nonzero;stroke:none;stroke-width:0.11165491;stroke-linecap:square;stroke-linejoin:round;stroke-miterlimit:10;stroke-dasharray:none;stroke-opacity:1;paint-order:stroke fill markers"
       d="m 1682,-1768.001 v 150.0003 h 30.0003 v -104.9998 c 0,-8.31 6.69,-15.0001 15.0001,-15.0001 8.31,0 14.9996,6.6901 14.9996,15.0001 v 104.9998 h 30.0002 v -104.9998 c 0,-8.31 6.6901,-15.0001 15.0002,-15.0001 8.31,0 15.0001,6.6901 15.0001,15.0001 v 104.9998 h 29.9997 v -117.0001 c 0,-18.2821 -14.7181,-33.0002 -33.0001,-33.0002 -11.6399,0 -21.8336,5.9676 -27.7052,15.0214 -6.52,-9.1074 -17.191,-15.0214 -29.2949,-15.0214 -12.5513,0 -23.561,6.3605 -29.9997,16.0457 v -16.0457 z"
       id="rect29429"
       inkscape:connector-curvature="0"
       sodipodi:nodetypes="cccsssccsssccsscsccc" />
    <path
       style="opacity:1;fill:#ffffff;fill-opacity:1;fill-rule:nonzero;stroke:none;stroke-width:1.08777189;stroke-linecap:square;stroke-linejoin:miter;stroke-miterlimit:1.41400003;stroke-dasharray:none;stroke-opacity:1;paint-order:markers stroke fill"
       d="m 1456.9999,-1828.0008 c -24.93,0 -44.9999,20.0704 -44.9999,45.0004 v 120 c 0,24.93 20.0699,44.9998 44.9999,44.9998 h 30.0002 c 24.93,0 44.9999,-20.0698 44.9999,-44.9998 v -30.0001 h -29.9998 v 30.0001 c 0,8.31 -6.6901,15.0001 -15.0001,15.0001 h -30.0002 c -8.31,0 -14.9996,-6.6901 -14.9996,-15.0001 v -120 c 0,-8.31 6.6896,-15.0001 14.9996,-15.0001 h 30.0002 c 8.31,0 15.0001,6.6901 15.0001,15.0001 v 29.9999 H 1532 v -29.9999 c 0,-24.93 -20.0699,-45.0004 -44.9999,-45.0004 z"
       id="rect7508"
       inkscape:connector-curvature="0"
       sodipodi:nodetypes="ssssssccssssssssccsss" />
    <path
       sodipodi:nodetypes="ssssccssccssssccss"
       inkscape:connector-curvature="0"
       id="path7545"
       d="m 1906.9998,-1768.0008 c -24.93,0 -44.9998,20.0705 -44.9998,45.0005 v 59.9999 c 0,24.93 20.0698,44.9999 44.9998,44.9999 24.93,0 45.0004,-20.0699 45.0004,-44.9999 h -30.0003 c 0,8.31 -6.6901,15.0002 -15.0001,15.0002 -8.31,0 -14.9996,-6.6902 -14.9996,-15.0002 v -15.0001 h 60 v -44.9998 c 0,-24.93 -20.0704,-45.0005 -45.0004,-45.0005 z m 0,30.0004 c 8.31,0 15.0001,6.6901 15.0001,15.0001 v 14.9996 h -29.9997 v -14.9996 c 0,-8.31 6.6896,-15.0001 14.9996,-15.0001 z"
       style="opacity:1;fill:#ffffff;fill-opacity:1;fill-rule:nonzero;stroke:none;stroke-width:2.00269508;stroke-linecap:square;stroke-linejoin:miter;stroke-miterlimit:1.41400003;stroke-dasharray:none;stroke-opacity:1;paint-order:markers stroke fill" />
    <path
       style="opacity:1;fill:#ffffff;fill-opacity:1;fill-rule:nonzero;stroke:none;stroke-width:1.12859035;stroke-linecap:square;stroke-linejoin:miter;stroke-miterlimit:1.41400003;stroke-dasharray:none;stroke-opacity:1;paint-order:markers stroke fill"
       d="m 1982,-1618.0007 v -149.9997 h 30.0003 v 18 c 0,-9.972 8.0279,-18 17.9999,-18 h 26.9999 v 29.9998 h -26.9999 c -9.972,0 -17.9999,8.0279 -17.9999,17.9999 v 102 z"
       id="rect850"
       inkscape:connector-curvature="0" />
    <path
       style="opacity:1;fill:#ffffff;fill-opacity:1;fill-rule:nonzero;stroke:none;stroke-width:0.96917546;stroke-linecap:square;stroke-linejoin:miter;stroke-miterlimit:1.41400003;stroke-dasharray:none;stroke-opacity:1;paint-order:markers stroke fill"
       d="m 1592.0003,-1618.0005 c -16.62,0 -30.0003,-13.3797 -30.0003,-29.9998 v -1.9998 c 0,-14.4445 6.3902,-28.1492 17.4553,-37.4339 L 1622,-1723.1331 v -8.8677 c 0,-3.324 -2.6761,-5.9995 -6.0001,-5.9995 h -18 c -3.324,0 -5.9996,2.6755 -5.9996,5.9995 v 9 H 1562 v -14.9995 c 0,-16.62 13.3803,-30.0005 30.0003,-30.0005 H 1622 c 16.62,0 30.0002,13.3805 30.0003,30.0005 v 108 c -10e-5,6.648 5.3517,11.9998 11.9997,11.9998 h -29.9997 c -6.648,0 -11.9998,-5.3518 -11.9998,-11.9998 0,6.648 -5.3523,11.9998 -12.0003,11.9998 z"
       id="rect889"
       inkscape:connector-curvature="0"
       sodipodi:nodetypes="sssccssssccssssscsccs" />
    <path
       style="opacity:1;fill:#0046aa;fill-opacity:1;fill-rule:nonzero;stroke:none;stroke-width:1.52456915;stroke-linecap:square;stroke-linejoin:miter;stroke-miterlimit:1.41400003;stroke-dasharray:none;stroke-opacity:1;paint-order:markers stroke fill"
       d="m 1598.7516,-1673.879 c -4.2798,3.591 -6.7515,8.8915 -6.7516,14.4782 v 5.4002 c 0,3.324 2.6762,6.0001 6.0002,6.0001 h 17.9999 c 3.324,0 6.0002,-2.6761 6.0002,-6.0001 l -2e-4,-39.386 z"
       id="rect1009"
       inkscape:connector-curvature="0"
       sodipodi:nodetypes="ccsssscc" />
    <path
       sodipodi:nodetypes="sssccssssccssssscsccs"
       inkscape:connector-curvature="0"
       id="path1069"
       d="m 2111.0003,-1618.0005 c -16.62,0 -30.0003,-13.3797 -30.0003,-29.9998 v -1.9998 c 0,-14.4445 6.3902,-28.1492 17.4553,-37.4339 L 2141,-1723.1331 v -8.8677 c 0,-3.324 -2.6761,-5.9995 -6.0001,-5.9995 h -18 c -3.324,0 -5.9996,2.6755 -5.9996,5.9995 v 9 H 2081 v -14.9995 c 0,-16.62 13.3803,-30.0005 30.0003,-30.0005 H 2141 c 16.62,0 30.0002,13.3805 30.0003,30.0005 v 108 c -1e-4,6.648 5.3517,11.9998 11.9997,11.9998 h -29.9997 c -6.648,0 -11.9998,-5.3518 -11.9998,-11.9998 0,6.648 -5.3523,11.9998 -12.0003,11.9998 z"
       style="opacity:1;fill:#ffffff;fill-opacity:1;fill-rule:nonzero;stroke:none;stroke-width:0.96917546;stroke-linecap:square;stroke-linejoin:miter;stroke-miterlimit:1.41400003;stroke-dasharray:none;stroke-opacity:1;paint-order:markers stroke fill" />
    <path
       sodipodi:nodetypes="ccsssscc"
       inkscape:connector-curvature="0"
       id="path1071"
       d="m 2117.7516,-1673.879 c -4.2798,3.591 -6.7515,8.8915 -6.7516,14.4782 v 5.4002 c 0,3.324 2.6762,6.0001 6.0002,6.0001 h 17.9999 c 3.324,0 6.0002,-2.6761 6.0002,-6.0001 l -2e-4,-39.386 z"
       style="opacity:1;fill:#0046aa;fill-opacity:1;fill-rule:nonzero;stroke:none;stroke-width:1.52456915;stroke-linecap:square;stroke-linejoin:miter;stroke-miterlimit:1.41400003;stroke-dasharray:none;stroke-opacity:1;paint-order:markers stroke fill" />
    <path
       inkscape:connector-curvature="0"
       id="path32396"
       d="m 1634,-1888.0005 h 29.9997 v -210 H 1634 Z"
       style="opacity:1;fill:#ffffff;fill-opacity:1;fill-rule:nonzero;stroke:none;stroke-width:0.28973541;stroke-linecap:square;stroke-linejoin:round;stroke-miterlimit:1.41400003;stroke-dasharray:none;stroke-opacity:1;paint-order:stroke fill markers" />
    <rect
       rx="33"
       y="-2098.0002"
       x="1657.9996"
       height="150"
       width="66"
       id="rect32398"
       style="opacity:1;fill:#ffffff;fill-opacity:1;fill-rule:nonzero;stroke:none;stroke-width:0.3508054;stroke-linecap:square;stroke-linejoin:round;stroke-miterlimit:1.41400003;stroke-dasharray:none;stroke-opacity:1;paint-order:stroke fill markers"
       ry="33" />
    <rect
       style="opacity:1;fill:#0046aa;fill-opacity:1;fill-rule:nonzero;stroke:none;stroke-width:0.18320112;stroke-linecap:square;stroke-linejoin:round;stroke-miterlimit:1.41400003;stroke-dasharray:none;stroke-opacity:1;paint-order:stroke fill markers"
       id="rect32400"
       width="29.999647"
       height="90"
       x="1663.9994"
       y="-2068.0007"
       rx="14.999824"
       ry="15" />
    <path
       style="opacity:1;fill:#ffffff;fill-opacity:1;fill-rule:nonzero;stroke:none;stroke-width:1.14991415;stroke-linecap:square;stroke-linejoin:miter;stroke-miterlimit:1.41400003;stroke-dasharray:none;stroke-opacity:1;paint-order:markers stroke fill"
       d="m 1544.0003,-2158.0006 c -24.93,0 -45.0003,20.0699 -45.0003,44.9999 v 8.0021 c 10e-5,13.7142 6.2541,26.6797 16.9871,35.217 l 52.3508,41.6418 c 3.5776,2.8457 5.6622,7.1679 5.6622,11.7394 v 23.4001 c 0,8.31 -6.6902,14.9996 -15.0002,14.9995 h -15.0001 c -8.31,10e-5 -14.9996,-6.6896 -14.9996,-14.9996 v -15 l -30.0002,-1e-4 v 15.0001 c 0,24.9301 20.0698,44.9999 44.9998,44.9999 h 15.0001 c 24.93,0 44.9999,-20.0698 44.9999,-44.9998 l 5e-4,-23.4002 c -10e-5,-13.7142 -6.2541,-26.6802 -16.9871,-35.2174 l -52.3508,-41.6414 c -3.5777,-2.8458 -5.6626,-7.1679 -5.6627,-11.7393 l 6e-4,-8.0021 c 0,-8.31 6.69,-14.9997 15.0001,-14.9997 h 15.0001 c 8.31,10e-5 14.9996,6.6897 14.9996,14.9997 v 15.0001 h 30.0002 v -15.0002 c 0,-24.93 -20.0698,-44.9998 -44.9998,-44.9998 z"
       id="rect6715"
       inkscape:connector-curvature="0"
       sodipodi:nodetypes="sscccsssssccssssccccssssccsss" />
    <path
       style="opacity:1;fill:#ffffff;fill-opacity:1;fill-rule:nonzero;stroke:none;stroke-width:2.00269508;stroke-linecap:square;stroke-linejoin:miter;stroke-miterlimit:1.41400003;stroke-dasharray:none;stroke-opacity:1;paint-order:markers stroke fill"
       d="m 1798.9998,-2098.0007 c -24.93,0 -44.9998,20.0704 -44.9998,45.0004 v 59.9999 c 0,24.93 20.0698,44.9999 44.9998,44.9999 24.93,0 45.0004,-20.0699 45.0004,-44.9999 h -30.0003 c 0,8.31 -6.6901,15.0002 -15.0001,15.0002 -8.31,0 -14.9996,-6.6902 -14.9996,-15.0002 v -15.0001 h 60 v -44.9998 c 0,-24.93 -20.0704,-45.0004 -45.0004,-45.0004 z m 0,30.0003 c 8.31,0 15.0001,6.6901 15.0001,15.0001 v 14.9996 h -29.9997 v -14.9996 c 0,-8.31 6.6896,-15.0001 14.9996,-15.0001 z"
       id="path11087"
       inkscape:connector-curvature="0"
       sodipodi:nodetypes="ssssccssccssssccss" />
    <path
       sodipodi:nodetypes="ssssccssccssssccss"
       inkscape:connector-curvature="0"
       id="path11098"
       d="m 1918.9998,-2098.0007 c -24.93,0 -44.9998,20.0704 -44.9998,45.0004 v 59.9999 c 0,24.93 20.0698,44.9999 44.9998,44.9999 24.93,0 45.0004,-20.0699 45.0004,-44.9999 h -30.0003 c 0,8.31 -6.6901,15.0002 -15.0001,15.0002 -8.31,0 -14.9996,-6.6902 -14.9996,-15.0002 v -15.0001 h 60 v -44.9998 c 0,-24.93 -20.0704,-45.0004 -45.0004,-45.0004 z m 0,30.0003 c 8.31,0 15.0001,6.6901 15.0001,15.0001 v 14.9996 h -29.9997 v -14.9996 c 0,-8.31 6.6896,-15.0001 14.9996,-15.0001 z"
       style="opacity:1;fill:#ffffff;fill-opacity:1;fill-rule:nonzero;stroke:none;stroke-width:2.00269508;stroke-linecap:square;stroke-linejoin:miter;stroke-miterlimit:1.41400003;stroke-dasharray:none;stroke-opacity:1;paint-order:markers stroke fill" />
    <path
       style="opacity:1;fill:#ffffff;fill-opacity:1;fill-rule:nonzero;stroke:none;stroke-width:0.28973541;stroke-linecap:square;stroke-linejoin:round;stroke-miterlimit:1.41400003;stroke-dasharray:none;stroke-opacity:1;paint-order:stroke fill markers"
       d="m 2083.9996,-2158.0005 h -29.9997 v 210 h 29.9997 z"
       id="path11120"
       inkscape:connector-curvature="0" />
    <rect
       ry="33"
       style="opacity:1;fill:#ffffff;fill-opacity:1;fill-rule:nonzero;stroke:none;stroke-width:0.3508054;stroke-linecap:square;stroke-linejoin:round;stroke-miterlimit:1.41400003;stroke-dasharray:none;stroke-opacity:1;paint-order:stroke fill markers"
       id="rect11122"
       width="66"
       height="150"
       x="1993.9999"
       y="-2098.0005"
       rx="33" />
    <rect
       ry="15"
       rx="14.999824"
       y="-2068.0002"
       x="2024.0004"
       height="90"
       width="29.999647"
       id="rect11124"
       style="opacity:1;fill:#0046aa;fill-opacity:1;fill-rule:nonzero;stroke:none;stroke-width:0.18320112;stroke-linecap:square;stroke-linejoin:round;stroke-miterlimit:1.41400003;stroke-dasharray:none;stroke-opacity:1;paint-order:stroke fill markers" />
    <path
       style="opacity:1;fill:#ffffff;fill-opacity:1;fill-rule:nonzero;stroke:none;stroke-width:0.73164111;stroke-linecap:square;stroke-linejoin:miter;stroke-miterlimit:1.41400003;stroke-dasharray:none;stroke-opacity:1;paint-order:markers stroke fill"
       d="m 1536.4998,-1498.0006 -44.9998,210.0001 h 30.0002 l 6.4286,-30.0002 h 47.1421 l 6.4293,30.0002 h 29.9997 l -44.9998,-210.0001 z m 15.0001,70.0004 17.1432,79.9998 h -34.2858 z"
       id="rect11126"
       inkscape:connector-curvature="0"
       sodipodi:nodetypes="ccccccccccccc" />
    <path
       style="opacity:1;fill:#ffffff;fill-opacity:1;fill-rule:nonzero;stroke:none;stroke-width:1.16000426;stroke-linecap:square;stroke-linejoin:miter;stroke-miterlimit:1.41400003;stroke-dasharray:none;stroke-opacity:1;paint-order:markers stroke fill"
       d="m 1671.4997,-1498.0006 v 73.9774 c 5.9624,-8.4659 15.8137,-13.9774 27.0004,-13.9774 18.2821,0 33.0001,14.718 33.0001,33 v 117.0001 H 1701.5 v -105.0003 c 0,-8.31 -6.6896,-14.9996 -14.9996,-14.9996 -8.31,0 -15.0002,6.6896 -15.0002,14.9996 v 105.0003 H 1641.5 v -210.0001 z"
       id="rect11146"
       inkscape:connector-curvature="0"
       sodipodi:nodetypes="ccssccssscccc" />
    <path
       sodipodi:nodetypes="ssssccssccssssccss"
       inkscape:connector-curvature="0"
       id="path11186"
       d="m 1806.4998,-1438.0007 c -24.93,0 -44.9998,20.0704 -44.9998,45.0004 v 59.9999 c 0,24.93 20.0698,44.9999 44.9998,44.9999 24.93,0 45.0004,-20.0699 45.0004,-44.9999 h -30.0003 c 0,8.31 -6.6901,15.0002 -15.0001,15.0002 -8.31,0 -14.9996,-6.6902 -14.9996,-15.0002 v -15.0001 h 60 v -44.9998 c 0,-24.93 -20.0704,-45.0004 -45.0004,-45.0004 z m 0,30.0003 c 8.31,0 15.0001,6.6901 15.0001,15.0001 v 14.9996 h -29.9997 v -14.9996 c 0,-8.31 6.6896,-15.0001 14.9996,-15.0001 z"
       style="opacity:1;fill:#ffffff;fill-opacity:1;fill-rule:nonzero;stroke:none;stroke-width:2.00269508;stroke-linecap:square;stroke-linejoin:miter;stroke-miterlimit:1.41400003;stroke-dasharray:none;stroke-opacity:1;paint-order:markers stroke fill" />
    <path
       style="opacity:1;fill:#ffffff;fill-opacity:1;fill-rule:nonzero;stroke:none;stroke-width:0.96917546;stroke-linecap:square;stroke-linejoin:miter;stroke-miterlimit:1.41400003;stroke-dasharray:none;stroke-opacity:1;paint-order:markers stroke fill"
       d="m 1911.5003,-1288.0005 c -16.62,0 -30.0003,-13.3797 -30.0003,-29.9998 v -1.9998 c 0,-14.4445 6.3902,-28.1492 17.4553,-37.4339 l 42.5447,-35.6991 v -8.8677 c 0,-3.324 -2.6761,-5.9995 -6.0001,-5.9995 h -18 c -3.324,0 -5.9996,2.6755 -5.9996,5.9995 v 9 H 1881.5 v -14.9995 c 0,-16.62 13.3803,-30.0004 30.0003,-30.0004 H 1941.5 c 16.62,0 30.0002,13.3804 30.0003,30.0004 v 108 c -10e-5,6.648 5.3517,11.9998 11.9997,11.9998 h -29.9997 c -6.648,0 -11.9998,-5.3518 -11.9998,-11.9998 0,6.648 -5.3523,11.9998 -12.0003,11.9998 z"
       id="path11197"
       inkscape:connector-curvature="0"
       sodipodi:nodetypes="sssccssssccssssscsccs" />
    <path
       style="opacity:1;fill:#0046aa;fill-opacity:1;fill-rule:nonzero;stroke:none;stroke-width:1.52456915;stroke-linecap:square;stroke-linejoin:miter;stroke-miterlimit:1.41400003;stroke-dasharray:none;stroke-opacity:1;paint-order:markers stroke fill"
       d="m 1918.2516,-1343.879 c -4.2798,3.591 -6.7515,8.8915 -6.7516,14.4782 v 5.4002 c 0,3.324 2.6762,6.0001 6.0002,6.0001 h 17.9999 c 3.324,0 6.0002,-2.6761 6.0002,-6.0001 l -2e-4,-39.386 z"
       id="path11199"
       inkscape:connector-curvature="0"
       sodipodi:nodetypes="ccsssscc" />
    <path
       inkscape:connector-curvature="0"
       id="path11236"
       d="m 2091.4996,-1498.0005 h -29.9997 v 210 h 29.9997 z"
       style="opacity:1;fill:#ffffff;fill-opacity:1;fill-rule:nonzero;stroke:none;stroke-width:0.28973541;stroke-linecap:square;stroke-linejoin:round;stroke-miterlimit:1.41400003;stroke-dasharray:none;stroke-opacity:1;paint-order:stroke fill markers" />
    <rect
       rx="33"
       y="-1438.0006"
       x="2001.4999"
       height="150"
       width="66"
       id="rect11238"
       style="opacity:1;fill:#ffffff;fill-opacity:1;fill-rule:nonzero;stroke:none;stroke-width:0.3508054;stroke-linecap:square;stroke-linejoin:round;stroke-miterlimit:1.41400003;stroke-dasharray:none;stroke-opacity:1;paint-order:stroke fill markers"
       ry="33" />
    <rect
       style="opacity:1;fill:#0046aa;fill-opacity:1;fill-rule:nonzero;stroke:none;stroke-width:0.18320112;stroke-linecap:square;stroke-linejoin:round;stroke-miterlimit:1.41400003;stroke-dasharray:none;stroke-opacity:1;paint-order:stroke fill markers"
       id="rect11240"
       width="29.999647"
       height="90"
       x="2031.5004"
       y="-1408.0004"
       rx="14.999824"
       ry="15" />
  </g>
</svg>
